<?xml version="1.0" encoding="UTF-8" standalone="no"?>
<!DOCTYPE svg PUBLIC "-//W3C//DTD SVG 1.1//EN" "http://www.w3.org/Graphics/SVG/1.1/DTD/svg11.dtd">
<svg version="1.1" xmlns="http://www.w3.org/2000/svg" xmlns:xlink="http://www.w3.org/1999/xlink" preserveAspectRatio="xMidYMid meet" viewBox="0 0 640 640" width="649" height="649"><defs><path d="M445.11 558.38C445.11 596.74 415.31 627.88 378.61 627.88C341.91 627.88 312.11 596.74 312.11 558.38C312.11 520.02 341.91 488.88 378.61 488.88C415.31 488.88 445.11 520.02 445.11 558.38Z" id="c15LM2vVS"></path><path d="M381.12 383.51C381.12 441.53 335.87 488.64 280.12 488.64C224.38 488.64 179.12 441.53 179.12 383.51C179.12 325.49 224.38 278.38 280.12 278.38C335.87 278.38 381.12 325.49 381.12 383.51Z" id="d1aZG8u1F"></path><path d="M640 163.24C640 253.34 564.1 326.48 470.61 326.48C377.12 326.48 301.21 253.34 301.21 163.24C301.21 73.15 377.12 0 470.61 0C564.1 0 640 73.15 640 163.24Z" id="cy6wyyI8v"></path></defs><g><g><g><use xlink:href="#c15LM2vVS" opacity="1" fill="#ffffff" fill-opacity="1"></use><g><use xlink:href="#c15LM2vVS" opacity="1" fill-opacity="0" stroke="#ffffff" stroke-width="1" stroke-opacity="1"></use></g></g><g><use xlink:href="#d1aZG8u1F" opacity="1" fill="#ffffff" fill-opacity="1"></use><g><use xlink:href="#d1aZG8u1F" opacity="1" fill-opacity="0" stroke="#ffffff" stroke-width="1" stroke-opacity="1"></use></g></g><g><use xlink:href="#cy6wyyI8v" opacity="1" fill="#ffffff" fill-opacity="1"></use><g><use xlink:href="#cy6wyyI8v" opacity="1" fill-opacity="0" stroke="#ffffff" stroke-width="1" stroke-opacity="1"></use></g></g></g></g></svg>